<svg xmlns="http://www.w3.org/2000/svg" viewBox="0 0 200 200" width="200" height="200" role="img" aria-label="$Vault">
  <rect width="200" height="200" fill="#000600"/>
  <polygon points="88.18,20.88 90.99,6.43 109.01,6.43 111.82,20.88" fill="#00ff41"/>
  <polygon points="129.32,25.57 138.98,14.46 154.59,23.47 149.80,37.39" fill="#00ff41"/>
  <polygon points="162.61,50.20 176.53,45.41 185.54,61.02 174.43,70.68" fill="#00ff41"/>
  <polygon points="179.12,88.18 193.57,90.99 193.57,109.01 179.12,111.82" fill="#00ff41"/>
  <polygon points="174.43,129.32 185.54,138.98 176.53,154.59 162.61,149.80" fill="#00ff41"/>
  <polygon points="149.80,162.61 154.59,176.53 138.98,185.54 129.32,174.43" fill="#00ff41"/>
  <polygon points="111.82,179.12 109.01,193.57 90.99,193.57 88.18,179.12" fill="#00ff41"/>
  <polygon points="70.68,174.43 61.02,185.54 45.41,176.53 50.20,162.61" fill="#00ff41"/>
  <polygon points="37.39,149.80 23.47,154.59 14.46,138.98 25.57,129.32" fill="#00ff41"/>
  <polygon points="20.88,111.82 6.43,109.01 6.43,90.99 20.88,88.18" fill="#00ff41"/>
  <polygon points="25.57,70.68 14.46,61.02 23.47,45.41 37.39,50.20" fill="#00ff41"/>
  <polygon points="50.20,37.39 45.41,23.47 61.02,14.46 70.68,25.57" fill="#00ff41"/>
  <circle cx="100.0" cy="100.0" r="82" fill="#00ff41"/>
  <circle cx="100.0" cy="100.0" r="72" fill="#000d02"/>
  <circle cx="100.0" cy="100.0" r="64" fill="none" stroke="#00ff41" stroke-width="1.4"/>
  <circle cx="100.00" cy="23.50" r="3.6" fill="#000d02" stroke="#00ff41" stroke-width="0.9"/><line x1="97.60" y1="23.50" x2="102.40" y2="23.50" stroke="#00ff41" stroke-width="1.1" stroke-linecap="round"/>
  <circle cx="154.09" cy="45.91" r="3.6" fill="#000d02" stroke="#00ff41" stroke-width="0.9"/><line x1="152.40" y1="44.21" x2="155.79" y2="47.60" stroke="#00ff41" stroke-width="1.1" stroke-linecap="round"/>
  <circle cx="176.50" cy="100.00" r="3.6" fill="#000d02" stroke="#00ff41" stroke-width="0.9"/><line x1="176.50" y1="97.60" x2="176.50" y2="102.40" stroke="#00ff41" stroke-width="1.1" stroke-linecap="round"/>
  <circle cx="154.09" cy="154.09" r="3.6" fill="#000d02" stroke="#00ff41" stroke-width="0.9"/><line x1="155.79" y1="152.40" x2="152.40" y2="155.79" stroke="#00ff41" stroke-width="1.1" stroke-linecap="round"/>
  <circle cx="100.00" cy="176.50" r="3.6" fill="#000d02" stroke="#00ff41" stroke-width="0.9"/><line x1="102.40" y1="176.50" x2="97.60" y2="176.50" stroke="#00ff41" stroke-width="1.1" stroke-linecap="round"/>
  <circle cx="45.91" cy="154.09" r="3.6" fill="#000d02" stroke="#00ff41" stroke-width="0.9"/><line x1="47.60" y1="155.79" x2="44.21" y2="152.40" stroke="#00ff41" stroke-width="1.1" stroke-linecap="round"/>
  <circle cx="23.50" cy="100.00" r="3.6" fill="#000d02" stroke="#00ff41" stroke-width="0.9"/><line x1="23.50" y1="102.40" x2="23.50" y2="97.60" stroke="#00ff41" stroke-width="1.1" stroke-linecap="round"/>
  <circle cx="45.91" cy="45.91" r="3.6" fill="#000d02" stroke="#00ff41" stroke-width="0.9"/><line x1="44.21" y1="47.60" x2="47.60" y2="44.21" stroke="#00ff41" stroke-width="1.1" stroke-linecap="round"/>
  <line x1="36.25" y1="117.08" x2="31.90" y2="118.25" stroke="#00ff41" stroke-width="1.4"/>
  <line x1="34.84" y1="110.51" x2="30.40" y2="111.23" stroke="#00ff41" stroke-width="1.4"/>
  <line x1="34.11" y1="103.84" x2="29.62" y2="104.10" stroke="#00ff41" stroke-width="1.4"/>
  <line x1="34.06" y1="97.12" x2="29.57" y2="96.92" stroke="#00ff41" stroke-width="1.4"/>
  <line x1="34.70" y1="90.43" x2="30.24" y2="89.78" stroke="#00ff41" stroke-width="1.4"/>
  <line x1="36.01" y1="83.85" x2="31.64" y2="82.75" stroke="#00ff41" stroke-width="1.4"/>
  <line x1="37.98" y1="77.43" x2="33.75" y2="75.89" stroke="#00ff41" stroke-width="1.4"/>
  <line x1="40.60" y1="71.24" x2="36.55" y2="69.28" stroke="#00ff41" stroke-width="1.4"/>
  <line x1="43.83" y1="65.35" x2="40.00" y2="62.99" stroke="#00ff41" stroke-width="1.4"/>
  <line x1="47.64" y1="59.82" x2="44.07" y2="57.08" stroke="#00ff41" stroke-width="1.4"/>
  <line x1="51.99" y1="54.71" x2="48.72" y2="51.62" stroke="#00ff41" stroke-width="1.4"/>
  <line x1="56.85" y1="50.06" x2="53.90" y2="46.66" stroke="#00ff41" stroke-width="1.4"/>
  <line x1="62.14" y1="45.94" x2="59.56" y2="42.25" stroke="#00ff41" stroke-width="1.4"/>
  <line x1="67.83" y1="42.37" x2="65.64" y2="38.44" stroke="#00ff41" stroke-width="1.4"/>
  <line x1="73.86" y1="39.40" x2="72.08" y2="35.27" stroke="#00ff41" stroke-width="1.4"/>
  <line x1="80.15" y1="37.05" x2="78.80" y2="32.76" stroke="#00ff41" stroke-width="1.4"/>
  <line x1="86.65" y1="35.36" x2="85.74" y2="30.96" stroke="#00ff41" stroke-width="1.4"/>
  <line x1="93.29" y1="34.34" x2="92.83" y2="29.87" stroke="#00ff41" stroke-width="1.4"/>
  <line x1="100.00" y1="34.00" x2="100.00" y2="29.50" stroke="#00ff41" stroke-width="1.4"/>
  <line x1="106.71" y1="34.34" x2="107.17" y2="29.87" stroke="#00ff41" stroke-width="1.4"/>
  <line x1="113.35" y1="35.36" x2="114.26" y2="30.96" stroke="#00ff41" stroke-width="1.4"/>
  <line x1="119.85" y1="37.05" x2="121.20" y2="32.76" stroke="#00ff41" stroke-width="1.4"/>
  <line x1="126.14" y1="39.40" x2="127.92" y2="35.27" stroke="#00ff41" stroke-width="1.4"/>
  <line x1="132.17" y1="42.37" x2="134.36" y2="38.44" stroke="#00ff41" stroke-width="1.4"/>
  <line x1="137.86" y1="45.94" x2="140.44" y2="42.25" stroke="#00ff41" stroke-width="1.4"/>
  <line x1="143.15" y1="50.06" x2="146.10" y2="46.66" stroke="#00ff41" stroke-width="1.4"/>
  <line x1="148.01" y1="54.71" x2="151.28" y2="51.62" stroke="#00ff41" stroke-width="1.4"/>
  <line x1="152.36" y1="59.82" x2="155.93" y2="57.08" stroke="#00ff41" stroke-width="1.4"/>
  <line x1="156.17" y1="65.35" x2="160.00" y2="62.99" stroke="#00ff41" stroke-width="1.4"/>
  <line x1="159.40" y1="71.24" x2="163.45" y2="69.28" stroke="#00ff41" stroke-width="1.4"/>
  <line x1="162.02" y1="77.43" x2="166.25" y2="75.89" stroke="#00ff41" stroke-width="1.4"/>
  <line x1="163.99" y1="83.85" x2="168.36" y2="82.75" stroke="#00ff41" stroke-width="1.4"/>
  <line x1="165.30" y1="90.43" x2="169.76" y2="89.78" stroke="#00ff41" stroke-width="1.4"/>
  <line x1="165.94" y1="97.12" x2="170.43" y2="96.92" stroke="#00ff41" stroke-width="1.4"/>
  <line x1="165.89" y1="103.84" x2="170.38" y2="104.10" stroke="#00ff41" stroke-width="1.4"/>
  <line x1="165.16" y1="110.51" x2="169.60" y2="111.23" stroke="#00ff41" stroke-width="1.4"/>
  <line x1="163.75" y1="117.08" x2="168.10" y2="118.25" stroke="#00ff41" stroke-width="1.4"/>
  <polygon points="56.00,78.00 129.00,78.00 141.00,86.00 129.00,94.00 56.00,94.00 68.00,86.00" fill="#00ff41"/><line x1="72.00" y1="86.00" x2="127.00" y2="86.00" stroke="#000d02" stroke-width="1.6"/><circle cx="76.00" cy="86.00" r="1.5" fill="#000d02"/><circle cx="123.00" cy="86.00" r="1.5" fill="#000d02"/>
  <polygon points="56.00,96.00 129.00,96.00 141.00,104.00 129.00,112.00 56.00,112.00 68.00,104.00" fill="#00ff41"/><line x1="72.00" y1="104.00" x2="127.00" y2="104.00" stroke="#000d02" stroke-width="1.6"/><circle cx="76.00" cy="104.00" r="1.5" fill="#000d02"/><circle cx="123.00" cy="104.00" r="1.5" fill="#000d02"/>
  <polygon points="56.00,114.00 129.00,114.00 141.00,122.00 129.00,130.00 56.00,130.00 68.00,122.00" fill="#00ff41"/><line x1="72.00" y1="122.00" x2="127.00" y2="122.00" stroke="#000d02" stroke-width="1.6"/><circle cx="76.00" cy="122.00" r="1.5" fill="#000d02"/><circle cx="123.00" cy="122.00" r="1.5" fill="#000d02"/>
  </svg>